# Blender v2.76 (sub 0) OBJ File: 'fussballtor.blend'
# www.blender.org
mtllib fussballtor.mtl
o Plane
v -3.000000 -0.000000 0.895610
v 3.000000 -0.000000 0.895610
v -3.000000 2.000000 0.895610
v 3.000000 2.000000 0.895610
v -3.000000 0.000000 -0.895610
v 3.000000 0.000000 -0.895610
v -3.000000 2.000000 -0.895578
v 3.000000 2.000000 -0.895578
v -3.000000 1.000000 -0.680219
v 3.000000 1.000000 -0.680219
v -3.000000 0.500000 -0.771365
v 3.000000 1.500000 -0.780790
v -3.000000 1.500000 -0.780790
v 3.000000 0.500000 -0.771365
v -3.000000 0.250000 -0.851713
v 3.000000 1.750000 -0.845778
v -3.000000 1.250000 -0.711587
v 3.000000 0.750000 -0.704204
v -3.000000 0.750000 -0.704204
v 3.000000 1.250000 -0.711587
v -3.000000 1.750000 -0.845778
v 3.000000 0.250000 -0.851713
v -3.000000 0.125000 -0.879264
v 3.000000 1.875000 -0.873914
v -3.000000 1.125000 -0.688607
v 3.000000 0.875000 -0.685892
v -3.000000 0.625000 -0.733382
v 3.000000 1.375000 -0.744398
v -3.000000 1.625000 -0.814912
v 3.000000 0.375000 -0.813001
v -3.000000 0.375000 -0.813001
v 3.000000 1.625000 -0.814912
v -3.000000 1.375000 -0.744398
v 3.000000 0.625000 -0.733382
v -3.000000 0.875000 -0.685892
v 3.000000 1.125000 -0.688607
v -3.000000 1.875000 -0.873914
v 3.000000 0.125000 -0.879264
vt 0.335048 1.000000
vt 0.335047 0.000000
vt 0.357680 0.000000
vt 0.357680 1.000000
vt 0.678837 0.333333
vt 0.678837 0.000000
vt 0.999994 0.000000
vt 0.999378 0.020833
vt 0.999378 0.041667
vt 0.999378 0.062500
vt 0.999378 0.083333
vt 0.999378 0.104167
vt 0.999378 0.125000
vt 0.999378 0.145833
vt 0.999378 0.166667
vt 0.999378 0.187500
vt 0.999378 0.208333
vt 0.999378 0.229167
vt 0.999378 0.250000
vt 0.999378 0.270833
vt 0.999378 0.291667
vt 0.999378 0.312500
vt 1.000000 0.333333
vt 0.678837 0.666667
vt 1.000142 0.354167
vt 1.000142 0.375000
vt 1.000142 0.395833
vt 1.000142 0.416667
vt 1.000142 0.437500
vt 1.000142 0.458333
vt 1.000142 0.479167
vt 1.000142 0.500000
vt 1.000142 0.520833
vt 1.000142 0.541667
vt 1.000142 0.562500
vt 1.000142 0.583333
vt 1.000142 0.604167
vt 1.000142 0.625000
vt 1.000142 0.645833
vt 0.999994 0.666667
vt 0.678837 1.000000
vt 0.153799 1.000000
vt 0.153799 0.000000
vt 0.176081 0.000000
vt 0.176081 1.000000
vt 0.066007 1.000000
vt 0.066007 0.000000
vt 0.087829 0.000000
vt 0.087829 1.000000
vt 0.243969 1.000000
vt 0.243968 0.000000
vt 0.266790 0.000000
vt 0.266790 1.000000
vt 0.198544 1.000000
vt 0.198544 0.000000
vt 0.221193 0.000000
vt 0.221193 1.000000
vt 0.022146 1.000000
vt 0.022146 0.000000
vt 0.044148 0.000000
vt 0.044148 1.000000
vt 0.109697 1.000000
vt 0.109697 0.000000
vt 0.131678 0.000000
vt 0.131679 1.000000
vt 0.289582 1.000000
vt 0.289582 0.000000
vt 0.312332 0.000000
vt 0.312332 1.000000
vt 0.000000 1.000000
vt 0.000000 0.000000
vn 0.000000 0.170800 0.985300
vn -1.000000 0.000000 0.000000
vn 1.000000 0.000000 0.000000
vn 0.000000 -1.000000 0.000000
vn 0.000000 -0.045300 0.999000
vn 0.000000 -0.316000 0.948800
vn 0.000000 0.279500 0.960100
vn 0.000000 0.180800 0.983500
vn 0.000000 -0.215200 0.976600
vn 0.000000 -0.227300 0.973800
vn 0.000000 0.239700 0.970800
vn 0.000000 0.263300 0.964700
vn 0.000000 -0.290700 0.956800
vn 0.000000 -0.129700 0.991600
vn 0.000000 0.066900 0.997800
vn 0.000000 0.253900 0.967200
vn 0.000000 -0.295800 0.955200
vn 0.000000 -0.145000 0.989400
vn 0.000000 0.219600 0.975600
usemtl Material
s off
f 37/1/1 24/2/1 8/3/1 7/4/1
f 2/5/2 4/6/2 8/7/2 24/8/2 16/9/2 32/10/2 12/11/2 28/12/2 20/13/2 36/14/2 10/15/2 26/16/2 18/17/2 34/18/2 14/19/2 30/20/2 22/21/2 38/22/2 6/23/2
f 3/24/3 1/5/3 5/23/3 23/25/3 15/26/3 31/27/3 11/28/3 27/29/3 19/30/3 35/31/3 9/32/3 25/33/3 17/34/3 33/35/3 13/36/3 29/37/3 21/38/3 37/39/3 7/40/3
f 4/6/4 3/41/4 7/4/4 8/3/4
f 35/42/5 26/43/5 10/44/5 9/45/5
f 31/46/6 30/47/6 14/48/6 11/49/6
f 33/50/7 28/51/7 12/52/7 13/53/7
f 25/54/8 36/55/8 20/56/8 17/57/8
f 23/58/9 38/59/9 22/60/9 15/61/9
f 27/62/10 34/63/10 18/64/10 19/65/10
f 29/66/11 32/67/11 16/68/11 21/69/11
f 13/53/12 12/52/12 32/67/12 29/66/12
f 11/49/13 14/48/13 34/63/13 27/62/13
f 5/70/14 6/71/14 38/59/14 23/58/14
f 9/45/15 10/44/15 36/55/15 25/54/15
f 17/57/16 20/56/16 28/51/16 33/50/16
f 15/61/17 22/60/17 30/47/17 31/46/17
f 19/65/18 18/64/18 26/43/18 35/42/18
f 21/69/19 16/68/19 24/2/19 37/1/19
